<svg width="600" height="600" viewBox="0 0 600 600" fill="none" xmlns="http://www.w3.org/2000/svg">
<g clip-path="url(#clip0_35_2)">
<path d="M600 300C600 465.685 465.685 600 300 600C134.315 600 0 465.685 0 300C0 134.315 134.315 0 300 0C465.685 0 600 134.315 600 300Z" fill="black"/>
<path d="M300 0C300 165.685 434.315 300 600 300C434.962 300 301.05 433.267 300.006 598.06L300 600L299.994 598.06C298.95 433.267 165.038 300 0 300C165.685 300 300 165.685 300 0Z" fill="#FFD900"/>
<path d="M300 185C300 248.513 351.487 300 415 300C351.735 300 300.402 351.086 300.002 414.256L300 415L299.998 414.256C299.598 351.086 248.265 300 185 300C248.513 300 300 248.513 300 185Z" fill="black"/>
</g>
<defs>
<clipPath id="clip0_35_2">
<rect width="600" height="600" fill="white"/>
</clipPath>
</defs>
</svg>
